<?xml version="1.0" encoding="utf-8"?>
<!-- Generator: Adobe Illustrator 25.0.0, SVG Export Plug-In . SVG Version: 6.00 Build 0)  -->
<svg version="1.1" id="Layer_1" xmlns="http://www.w3.org/2000/svg" xmlns:xlink="http://www.w3.org/1999/xlink" x="0px" y="0px"
	 viewBox="0 0 180 75" style="enable-background:new 0 0 180 75;" xml:space="preserve">
<style type="text/css">
	.st0{fill:#EE2737;}
</style>
<path class="st0" d="M168.6,7.2c-3.5,0.4-7,0.9-10.4,1.5c-7.4,0.2-16.2,1.8-23.2-0.9c-5.1-0.4-10.3-4-15.7-3.8
	c-8.3-2.2-15.8-3.7-23.6-1.3c-8.4,1.9-16.5,4.7-24.9,6.7c-20.6,7-45.5-8.9-62.9,7.9c-9.6,11.5-9.2,29.6-4.6,43
	c3.6,7.6,22.4,3.1,30.5,5.5c4.8,0,9,1.7,13.8,2.8c5.5,0,11.1,1.3,16.6,1.1c10.2-0.2,19.5-5.2,29.4-6.8c14.3-6.5,28.5,3.1,42,6.6
	c7.2,2.1,14.5,3.6,22,2.7c21-6.8,17.7-34.2,22.4-49.3C180.8,18.2,180.1,5.7,168.6,7.2z"/>
</svg>
